# xmcd
#
# Track frame offsets:
#	150
#	11355
#	27655
#	41183
#	57380
#	69803
#	87606
#	99236
#	112520
#	129870
#	141618
#	153333
#
# Disc length: 2240 seconds
# Revision: 0
# Processed by: cddbd v1.5.2PL0 Copyright (c) Steve Scherf et al.
# Submitted via: dBpowerAMP V12.0
#
DISCID=9808be0c
DTITLE=Edgar Loudermilk Band feat. Jeff Autry - Lonesome Riverboat Blues
DYEAR=2019
DGENRE=Bluegrass
TTITLE0=Lonesome Riverboat Blues
TTITLE1=The House My Daddy Built
TTITLE2=All I'm Missing Is You
TTITLE3=Dinah
TTITLE4=Have You Seen My Blueridge Girl
TTITLE5=I Missed My Chance
TTITLE6=The Winter Wind
TTITLE7=Since I Left Virginia
TTITLE8=Singing to the Scarecrow
TTITLE9=Until  I Can Find My Way Back to You
TTITLE10=Living Life Without You
TTITLE11=When I Grow Too Old to Dream
EXTD=
EXTT0=
EXTT1=
EXTT2=
EXTT3=
EXTT4=
EXTT5=
EXTT6=
EXTT7=
EXTT8=
EXTT9=
EXTT10=
EXTT11=
PLAYORDER=
